<svg xmlns="http://www.w3.org/2000/svg" viewBox="0 0 128 104">
  <defs>
    <path id="tBodyPath" d="M9 35 C15.4 23.3 32.5 20 50.4 18 C57.6 17.2 63.4 18.4 68.6 21.6 C78.3 16.8 88.7 15.9 100.6 13.4 C94.1 22.4 85.2 27.8 73.9 30.7 C64.4 33.2 56.8 36.2 50.5 40.9 C44.6 45.3 41.5 51.7 39.5 59.7 C33 67.9 25.7 76.5 16.5 85.4 C15.2 74.7 17.9 66.1 22.7 57.6 C26.9 49.9 32.2 41.4 31 34.8 C25.1 38.7 17.6 40.9 11.1 39.9 C5.9 39.1 4.1 37.2 9 35 Z"/>
    <clipPath id="tClip"><use href="#tBodyPath"/></clipPath>
    <linearGradient id="satinRed" x1="8" x2="101" y1="18" y2="82" gradientUnits="userSpaceOnUse">
      <stop offset="0" stop-color="#ff635a"/>
      <stop offset=".2" stop-color="#ff1a11"/>
      <stop offset=".52" stop-color="#f30700"/>
      <stop offset=".8" stop-color="#d90000"/>
      <stop offset="1" stop-color="#fb1008"/>
    </linearGradient>
    <linearGradient id="opRed" x1="51" x2="110" y1="48" y2="74" gradientUnits="userSpaceOnUse">
      <stop offset="0" stop-color="#ff554e"/>
      <stop offset=".34" stop-color="#f30700"/>
      <stop offset=".72" stop-color="#d90000"/>
      <stop offset="1" stop-color="#a90000"/>
    </linearGradient>
    <linearGradient id="tSideRed" x1="20" x2="94" y1="25" y2="88" gradientUnits="userSpaceOnUse">
      <stop offset="0" stop-color="#cf0904"/>
      <stop offset=".42" stop-color="#8e0000"/>
      <stop offset="1" stop-color="#5d0000"/>
    </linearGradient>
    <linearGradient id="rimLight" x1="8" x2="102" y1="18" y2="26" gradientUnits="userSpaceOnUse">
      <stop offset="0" stop-color="#fff5ec" stop-opacity=".36"/>
      <stop offset=".42" stop-color="#fff8f0" stop-opacity=".2"/>
      <stop offset="1" stop-color="#fff" stop-opacity=".08"/>
    </linearGradient>
    <radialGradient id="softSpec" cx="38%" cy="22%" r="70%">
      <stop offset="0" stop-color="#fff0eb" stop-opacity=".36"/>
      <stop offset=".2" stop-color="#ff9a92" stop-opacity=".16"/>
      <stop offset=".48" stop-color="#e50000" stop-opacity=".035"/>
      <stop offset="1" stop-color="#890000" stop-opacity=".25"/>
    </radialGradient>
    <filter id="mainShadow" x="-38%" y="-40%" width="180%" height="195%">
      <feDropShadow dx="3.7" dy="4.4" stdDeviation="0" flood-color="#4f0000" flood-opacity=".24"/>
      <feDropShadow dx="0" dy="12" stdDeviation="8" flood-color="#2a120f" flood-opacity=".22"/>
      <feDropShadow dx="18" dy="20" stdDeviation="9" flood-color="#5e514d" flood-opacity=".2"/>
    </filter>
    <filter id="softBlur" x="-40%" y="-40%" width="180%" height="180%">
      <feGaussianBlur stdDeviation="2.8"/>
    </filter>
    <filter id="opShadow" x="-35%" y="-38%" width="180%" height="190%">
      <feDropShadow dx="3.8" dy="4.8" stdDeviation="0" flood-color="#240405" flood-opacity=".2"/>
      <feDropShadow dx="10" dy="10" stdDeviation="5" flood-color="#655650" flood-opacity=".16"/>
    </filter>
  </defs>
  <g fill="none" stroke="#211b19" stroke-width="1" stroke-linecap="round" opacity=".4">
    <path d="M35 13 H53"/>
    <path d="M77 13 H93"/>
    <path d="M35 13 V34"/>
    <path d="M35 74 V91"/>
    <path d="M93 13 V40"/>
    <path d="M93 82 V91"/>
    <path d="M35 91 H54"/>
    <path d="M78 91 H93"/>
  </g>
  <g opacity=".28" transform="translate(2.4 3.4)">
    <use href="#tBodyPath" fill="url(#tSideRed)"/>
  </g>
  <g opacity=".2" transform="translate(7.4 8)">
    <use href="#tBodyPath" fill="#8b827c" filter="url(#softBlur)"/>
  </g>
  <g filter="url(#mainShadow)">
    <use href="#tBodyPath" fill="url(#satinRed)" stroke="#160102" stroke-width=".86" stroke-linejoin="round"/>
    <g clip-path="url(#tClip)">
      <ellipse cx="45" cy="24" rx="43" ry="13" fill="#fff" opacity=".13" filter="url(#softBlur)"/>
      <ellipse cx="59" cy="27" rx="49" ry="7" fill="url(#rimLight)" opacity=".82" filter="url(#softBlur)" transform="rotate(-8 59 27)"/>
      <ellipse cx="26" cy="63" rx="18" ry="28" fill="#8b0000" opacity=".2" filter="url(#softBlur)" transform="rotate(22 26 63)"/>
      <rect x="3" y="48" width="105" height="44" fill="url(#softSpec)" opacity=".78"/>
    </g>
    <use href="#tBodyPath" fill="none" stroke="#fff6ef" stroke-width=".9" stroke-linejoin="round" opacity=".13"/>
    <use href="#tBodyPath" fill="none" stroke="#2a0000" stroke-width="1" stroke-linejoin="round" opacity=".12" transform="translate(.55 .65)"/>
  </g>
  <g fill="url(#opRed)" filter="url(#opShadow)">
    <path fill-rule="evenodd" d="M50 61 C50 53.4 55.5 48.2 63.3 48.2 C71.1 48.2 76.6 53.4 76.6 61 C76.6 68.6 71.1 73.8 63.3 73.8 C55.5 73.8 50 68.6 50 61 Z M55.4 61 C55.4 65.6 58.5 68.8 63.3 68.8 C68.1 68.8 71.2 65.6 71.2 61 C71.2 56.4 68.1 53.2 63.3 53.2 C58.5 53.2 55.4 56.4 55.4 61 Z"/>
    <path fill-rule="evenodd" d="M86.8 73.2 V48.7 H96.2 C102.3 48.7 106.2 52.5 106.2 58.5 C106.2 64.5 102.3 68.2 96.2 68.2 H92 V73.2 H86.8 Z M92 53.5 V63.4 H95.7 C99 63.4 100.9 61.7 100.9 58.5 C100.9 55.3 99 53.5 95.7 53.5 H92 Z"/>
  </g>
</svg>
