<svg xmlns="http://www.w3.org/2000/svg" viewBox="0 0 96 96">
  <rect width="96" height="96" rx="22" fill="#fffdf7"/>
  <rect x="4" y="4" width="88" height="88" rx="19" fill="none" stroke="#f30700" stroke-width="3"/>
  <path d="M16 31 C21 20 36 17 50 17 C61 17 71 14 83 11 C78 20 69 26 57 29 C48 31 42 35 38 42 C35 50 29 60 19 72 C17 62 20 52 25 43 C28 37 27 32 23 32 C20 33 17 33 16 31 Z" fill="#f30700"/>
  <path d="M41 60 C41 52 47 46 56 46 C65 46 71 52 71 60 C71 68 65 74 56 74 C47 74 41 68 41 60 Z M48 60 C48 64 51 67 56 67 C61 67 64 64 64 60 C64 56 61 53 56 53 C51 53 48 56 48 60 Z" fill="#171815"/>
  <path d="M73 74 V47 H84 C91 47 95 52 95 59 C95 66 91 70 84 70 H80 V74 H73 Z M80 54 V63 H84 C87 63 89 61 89 59 C89 56 87 54 84 54 H80 Z" fill="#171815" transform="translate(-4 0)"/>
</svg>
